<svg width="120" height="120" viewBox="0 0 120 120" xmlns="http://www.w3.org/2000/svg">

  <!-- Cloud -->
  <path
    d="M18 58
       C18 47 27 39 39 39
       C45 39 51 41 55 46
       C59 37 67 32 77 32
       C91 32 101 43 101 57
       C101 59 101 61 100 63
       C106 65 110 70 110 76
       C110 83 104 88 97 88
       H28
       C18 88 11 81 11 73
       C11 67 14 62 18 58Z"
    fill="#B8C5D6"
    stroke="#7E8DA2"
    stroke-width="3"/>

  <!-- Snowflakes -->
  <g stroke="#69B7E6" stroke-width="3" stroke-linecap="round">

    <!-- Snowflake 1 -->
    <line x1="32" y1="97" x2="32" y2="113"/>
    <line x1="25" y1="105" x2="39" y2="105"/>
    <line x1="27" y1="100" x2="37" y2="110"/>
    <line x1="37" y1="100" x2="27" y2="110"/>

    <!-- Snowflake 2 -->
    <line x1="60" y1="97" x2="60" y2="113"/>
    <line x1="53" y1="105" x2="67" y2="105"/>
    <line x1="55" y1="100" x2="65" y2="110"/>
    <line x1="65" y1="100" x2="55" y2="110"/>

    <!-- Snowflake 3 -->
    <line x1="88" y1="97" x2="88" y2="113"/>
    <line x1="81" y1="105" x2="95" y2="105"/>
    <line x1="83" y1="100" x2="93" y2="110"/>
    <line x1="93" y1="100" x2="83" y2="110"/>

  </g>
</svg>